<svg width="512" height="512" viewBox="0 0 512 512" fill="none" xmlns="http://www.w3.org/2000/svg">
  <rect x="32" y="32" width="448" height="448" rx="112" fill="url(#bg)"/>
  <rect x="33" y="33" width="446" height="446" rx="111" stroke="white" stroke-opacity="0.18"/>
  <circle cx="158" cy="132" r="92" fill="url(#glow)"/>
  <circle cx="356" cy="356" r="60" fill="url(#glowTwo)"/>
  <path d="M256 120C319.2 128.8 350 163.8 350 220.8C350 290.5 314.5 346.3 256 392C197.5 346.3 162 290.5 162 220.8C162 163.8 192.8 128.8 256 120Z" fill="url(#shield)"/>
  <rect x="236" y="194" width="40" height="124" rx="12" fill="#0D9488"/>
  <rect x="194" y="236" width="124" height="40" rx="12" fill="#0D9488"/>
  <defs>
    <linearGradient id="bg" x1="64" y1="56" x2="442" y2="456" gradientUnits="userSpaceOnUse">
      <stop stop-color="#041B2A"/>
      <stop offset="1" stop-color="#0A364E"/>
    </linearGradient>
    <radialGradient id="glow" cx="0" cy="0" r="1" gradientUnits="userSpaceOnUse" gradientTransform="translate(158 132) rotate(90) scale(92)">
      <stop stop-color="#5EEAD4" stop-opacity="0.66"/>
      <stop offset="1" stop-color="#5EEAD4" stop-opacity="0"/>
    </radialGradient>
    <radialGradient id="glowTwo" cx="0" cy="0" r="1" gradientUnits="userSpaceOnUse" gradientTransform="translate(356 356) rotate(90) scale(60)">
      <stop stop-color="#60A5FA" stop-opacity="0.38"/>
      <stop offset="1" stop-color="#60A5FA" stop-opacity="0"/>
    </radialGradient>
    <linearGradient id="shield" x1="256" y1="120" x2="256" y2="392" gradientUnits="userSpaceOnUse">
      <stop stop-color="white"/>
      <stop offset="1" stop-color="#E6F5F7"/>
    </linearGradient>
  </defs>
</svg>
